<svg width="104" height="54" viewBox="0 0 104 54" fill="none" xmlns="http://www.w3.org/2000/svg">
<path d="M13.4643 11V14.506C12.3329 14.506 11.4502 14.6441 10.8162 14.9204C10.1821 15.186 9.90862 15.7225 9.99565 16.53L10.5738 21.2312C10.7229 22.4211 10.5675 23.3826 10.1075 24.1157C9.65997 24.8487 8.96997 25.4119 8.03754 25.805C7.11755 26.1875 6.02971 26.4584 4.77403 26.6177C6.1043 26.7877 7.22944 27.064 8.14944 27.4465C9.06943 27.8289 9.74078 28.3814 10.1635 29.1038C10.5862 29.8263 10.7229 30.7931 10.5738 32.0043L9.99565 36.7056C9.90862 37.513 10.1821 38.0495 10.8162 38.3151C11.4502 38.5913 12.3329 38.7295 13.4643 38.7295V42.2355C10.0329 42.2355 7.62105 41.7892 6.22863 40.8969C4.84864 40.015 4.28917 38.5011 4.55025 36.3549L5.10972 31.7971C5.20918 30.9897 5.04755 30.3575 4.62485 29.9007C4.21458 29.4438 3.60539 29.1251 2.79728 28.9444C1.98918 28.7533 1.05675 28.6577 0 28.6577V24.5778C1.04432 24.5778 1.97054 24.4875 2.77864 24.3069C3.58675 24.1157 4.20215 23.7917 4.62485 23.3348C5.04755 22.878 5.20918 22.2458 5.10972 21.4384L4.55025 16.9124C4.27674 14.7238 4.8362 13.1939 6.22863 12.3227C7.62105 11.4409 10.0329 11 13.4643 11Z" fill="url(#paint0_linear_8_30)"/>
<path d="M92 11C95.0056 11 97.1128 11.4393 98.3217 12.3178C99.5413 13.1963 100.037 14.7099 99.8082 16.8586L99.3181 21.3993C99.2309 22.2038 99.3725 22.8335 99.7428 23.2887C100.113 23.7438 100.647 24.0666 101.344 24.2572C102.051 24.437 102.868 24.527 103.794 24.527V28.5916C102.879 28.5916 102.068 28.6869 101.36 28.8773C100.652 29.0573 100.113 29.3748 99.7428 29.83C99.3725 30.2851 99.2309 30.9149 99.3181 31.7193L99.8082 36.2283C100.059 38.3982 99.5685 39.9223 98.3379 40.8008C97.1183 41.6794 95.0056 42.1186 92 42.1186V38.6257C93.002 38.6257 93.7805 38.4881 94.3359 38.2129C94.8913 37.9483 95.1254 37.4138 95.0384 36.6094L94.5319 31.9257C94.4013 30.7296 94.5319 29.7717 94.924 29.052C95.3269 28.3216 95.9368 27.7659 96.7535 27.385C97.5702 26.9932 98.5285 26.7181 99.6284 26.5593C98.4632 26.3899 97.4723 26.1148 96.6555 25.7337C95.8496 25.3526 95.2616 24.8023 94.8913 24.0825C94.5211 23.3522 94.4013 22.389 94.5319 21.1929L95.0384 16.5093C95.1254 15.7048 94.8858 15.1703 94.3196 14.9057C93.7642 14.6305 92.991 14.4929 92 14.4929V11Z" fill="url(#paint1_linear_8_30)"/>
<path d="M43.96 36.04H33.48L31.8 41H24.64L34.8 12.92H42.72L52.88 41H45.64L43.96 36.04ZM42.2 30.76L38.72 20.48L35.28 30.76H42.2Z" fill="url(#paint2_linear_8_30)"/>
<path d="M81.08 12.92V32.04C81.08 35 80.24 37.28 78.56 38.88C76.9067 40.48 74.6667 41.28 71.84 41.28C68.88 41.28 66.5067 40.44 64.72 38.76C62.9333 37.08 62.04 34.6933 62.04 31.6H68.84C68.84 32.7733 69.08 33.6667 69.56 34.28C70.04 34.8667 70.7333 35.16 71.64 35.16C72.4667 35.16 73.1067 34.8933 73.56 34.36C74.0133 33.8267 74.24 33.0533 74.24 32.04V12.92H81.08Z" fill="url(#paint3_linear_8_30)"/>
<defs>
<linearGradient id="paint0_linear_8_30" x1="-2.19799" y1="44.6401" x2="102.841" y2="1.13064" gradientUnits="userSpaceOnUse">
<stop stop-color="#00C0FD"/>
<stop offset="1" stop-color="#E70FAA"/>
</linearGradient>
<linearGradient id="paint1_linear_8_30" x1="10.7717" y1="44.5142" x2="105.942" y2="9.85385" gradientUnits="userSpaceOnUse">
<stop stop-color="#00C0FD"/>
<stop offset="1" stop-color="#E70FAA"/>
</linearGradient>
<linearGradient id="paint2_linear_8_30" x1="22.8191" y1="28.5255" x2="48.6598" y2="28.5255" gradientUnits="userSpaceOnUse">
<stop offset="0.0260229" stop-color="#13B0F5"/>
<stop offset="1" stop-color="#E70FAA"/>
</linearGradient>
<linearGradient id="paint3_linear_8_30" x1="59.8191" y1="28.5255" x2="85.6598" y2="28.5255" gradientUnits="userSpaceOnUse">
<stop offset="0.0260229" stop-color="#13B0F5"/>
<stop offset="1" stop-color="#E70FAA"/>
</linearGradient>
</defs>
</svg>
